<?xml version="1.0" encoding="UTF-8"?>
<svg id="Layer_1" data-name="Layer 1" xmlns="http://www.w3.org/2000/svg" viewBox="0 0 130.31 223.21">
  <defs>
    <style>
      .cls-1 {
        fill: #56b146;
      }

      .cls-1, .cls-2, .cls-3, .cls-4 {
        stroke-width: 0px;
      }

      .cls-2 {
        fill: #ffca38;
      }

      .cls-3 {
        fill: #fff;
      }

      .cls-4 {
        fill: #5d97c9;
      }
    </style>
  </defs>
  <path class="cls-3" d="M77.88,180.47c-24.74,0-48.61,2.67-67.9,7.09l.84,2.39c18.75-3.38,40.71-5.5,64.08-4.74,15.3.5,29.89,2.5,43.33,4.74l2.53-7.13c-13.35-1.75-27.79-2.34-42.87-2.34"/>
  <path class="cls-2" d="M32.64,46.88C87.94,12.94,82.78,8.97,80.69,5.91l.15-.11c4.03,3.44,14.1,18.07-31.13,46.19C8.61,77.55,5.97,93.45,24.3,109.87c4.64,4.16,6.13,4.73,13.76,9.35l-5.9,7.66c-8.95-5.66-67.85-36.64.47-80"/>
  <path class="cls-4" d="M72.93,98.28C18.79,64.31,23.53,61,25.59,57.99l-.15-.11c-3.98,3.38-13.42,17.8,31.14,45.45,42.88,26.61,38.37,43.38,22.56,68.29.01.17-.21.3-.2.43,21.63-14.73,38.47-45.87-6.01-73.77"/>
  <path class="cls-2" d="M41.93,107.25h0c-6.76-15.14-4.02-24.44,27.25-43.71C117.47,33.77,89.05,6.34,81.36.09l.15-.09c8.97,5.03,46.01,37.49-4.42,69.11-23.13,14.52-37.27,23.01-35.16,38.14"/>
  <path class="cls-1" d="M84.72,134.41c-27.78,17.14-38.14,30.94-30.03,41.98-2.38-15.22,19.17-22.08,41.32-36.1,66.14-41.88,18.5-79.88,5.92-86.14l-.21.12c10.81,7.8,44.63,41.98-17,80.15"/>
  <path class="cls-4" d="M75.93,168.97v-.16c6.74-15.13-10.09-32.5-41.36-51.78-48.31-29.77-18.07-58.13-10.38-64.37l-1.95,1.43c-10.76,8.06-46.34,37.53,4.09,69.16,23.14,14.52,51.69,30.6,49.6,45.73"/>
  <path class="cls-1" d="M58.91,101.87c51.03-33.94,45.62-39.02,43.7-42.09l.15-.1c3.72,3.44,14.73,18.11-27,46.22-48.36,32.6-48.22,43.92-23.02,66.86l1.97,3.69c-10.73-5.78-58.96-32.46,4.26-74.52"/>
  <path class="cls-3" d="M26.4,223.21c-7.71,0-13.6-6-13.6-13.41s5.89-13.41,13.6-13.41,13.56,6,13.56,13.41-5.89,13.41-13.56,13.41ZM26.4,201.01c-4.59,0-7.93,3.85-7.93,8.78s3.33,8.78,7.93,8.78,7.89-3.85,7.89-8.78-3.33-8.78-7.89-8.78Z"/>
  <path class="cls-3" d="M60.87,222.76v-11.11h-11v11.11h-5.3v-25.93h5.3v10.34h11v-10.34h5.3v25.93h-5.3Z"/>
  <path class="cls-3" d="M81.33,200.9c-1.78,0-3.37.89-3.37,2.59,0,2,2.45,2.56,4.45,3.26,3.67,1.26,8.08,2.96,8.08,8.41s-5.3,8.04-9.82,8.04c-4,0-7.11-1.52-9.93-4.33l3.52-3.45c2.11,2.04,3.74,3.26,6.45,3.26,2.07,0,4.11-1,4.11-3.3s-2.37-3.07-5-4.04c-3.37-1.26-7.15-2.74-7.15-7.71s4.19-7.26,8.48-7.26c3.33,0,5.96,1.08,8.6,3.08l-3.04,3.78c-1.45-1.22-3.37-2.33-5.37-2.33Z"/>
  <path class="cls-3" d="M115.78,210.54c0,8.15-3.11,12.67-10.52,12.67s-10.37-4.52-10.37-12.67v-13.71h5.3v14.41c0,4.96,2,7.34,5.15,7.34s5.15-2.37,5.15-7.34v-14.41h5.3v13.71Z"/>
</svg>